# xmcd
#
# Track frame offsets: 
#        150
#        2922
#        19067
#        43160
#        57167
#        71267
#        91062
#        108912
#        127105
#        146742
#        167105
#        187027
#
# Disc length: 2704 seconds
#
# Revision: 0
# Processed by: cddbd v1.4PL0 Copyright (c) Steve Scherf et al.
# Submitted via: ExactAudioCopy v0.90b4
#
DISCID=a30a8e0c
DTITLE=Gary Morris - Lone Star Knight
DYEAR=1900
DGENRE=Country
TTITLE0=Love's Amazing Grace (Intro)
TTITLE1=Love's Amazing Grace
TTITLE2=Where Love Is King
TTITLE3=How Promises Go
TTITLE4=How Could I Believe
TTITLE5=Catch You Before You Fall
TTITLE6=Another Moment
TTITLE7=Voodoo Doll
TTITLE8=Lone Star Night
TTITLE9=Ghetto Bedroom
TTITLE10=It Ain't That Way
TTITLE11=One More Look At You
EXTD=
EXTT0=
EXTT1=
EXTT2=
EXTT3=
EXTT4=
EXTT5=
EXTT6=
EXTT7=
EXTT8=
EXTT9=
EXTT10=
EXTT11=
PLAYORDER=
